<mxfile host="Electron" modified="2023-11-20T05:52:17.070Z" agent="Mozilla/5.0 (Windows NT 10.0; Win64; x64) AppleWebKit/537.36 (KHTML, like Gecko) draw.io/22.0.2 Chrome/114.0.5735.289 Electron/25.8.4 Safari/537.36" etag="r7d2lqeHUd50ZIPcE7Tr" version="22.0.2" type="device">
  <diagram name="Страница — 1" id="wFZ1NM1qwoRh4snVowb8">
    <mxGraphModel dx="449" dy="614" grid="1" gridSize="10" guides="1" tooltips="1" connect="1" arrows="1" fold="1" page="1" pageScale="1" pageWidth="827" pageHeight="1169" math="0" shadow="0">
      <root>
        <mxCell id="0" />
        <mxCell id="1" parent="0" />
        <mxCell id="zs10cR3Apqn2q6g3ceit-1" value="" style="rounded=0;whiteSpace=wrap;html=1;fillColor=none;movable=1;resizable=1;rotatable=1;deletable=1;editable=1;locked=0;connectable=1;" parent="1" vertex="1">
          <mxGeometry x="955" y="140" width="520" height="630" as="geometry" />
        </mxCell>
        <mxCell id="zs10cR3Apqn2q6g3ceit-2" style="rounded=0;orthogonalLoop=1;jettySize=auto;html=1;endArrow=none;endFill=0;" parent="1" source="zs10cR3Apqn2q6g3ceit-4" target="zs10cR3Apqn2q6g3ceit-32" edge="1">
          <mxGeometry relative="1" as="geometry" />
        </mxCell>
        <mxCell id="zs10cR3Apqn2q6g3ceit-3" style="rounded=0;orthogonalLoop=1;jettySize=auto;html=1;endArrow=none;endFill=0;" parent="1" source="zs10cR3Apqn2q6g3ceit-4" target="zs10cR3Apqn2q6g3ceit-45" edge="1">
          <mxGeometry relative="1" as="geometry" />
        </mxCell>
        <mxCell id="zs10cR3Apqn2q6g3ceit-4" value="Пользователь" style="shape=umlActor;verticalLabelPosition=top;verticalAlign=bottom;html=1;outlineConnect=0;movable=1;resizable=1;rotatable=1;deletable=1;editable=1;locked=0;connectable=1;labelPosition=center;align=center;" parent="1" vertex="1">
          <mxGeometry x="898" y="202" width="30" height="60" as="geometry" />
        </mxCell>
        <mxCell id="zs10cR3Apqn2q6g3ceit-5" value="Разработчик" style="shape=umlActor;verticalLabelPosition=bottom;verticalAlign=top;html=1;outlineConnect=0;movable=1;resizable=1;rotatable=1;deletable=1;editable=1;locked=0;connectable=1;" parent="1" vertex="1">
          <mxGeometry x="1526" y="322" width="30" height="60" as="geometry" />
        </mxCell>
        <mxCell id="zs10cR3Apqn2q6g3ceit-6" style="rounded=0;orthogonalLoop=1;jettySize=auto;html=1;entryX=0;entryY=0.5;entryDx=0;entryDy=0;endArrow=none;endFill=0;" parent="1" source="zs10cR3Apqn2q6g3ceit-7" target="zs10cR3Apqn2q6g3ceit-45" edge="1">
          <mxGeometry relative="1" as="geometry" />
        </mxCell>
        <mxCell id="zs10cR3Apqn2q6g3ceit-7" value="Администратор" style="shape=umlActor;verticalLabelPosition=bottom;verticalAlign=top;html=1;outlineConnect=0;labelPosition=center;align=center;movable=1;resizable=1;rotatable=1;deletable=1;editable=1;locked=0;connectable=1;" parent="1" vertex="1">
          <mxGeometry x="860" y="365" width="30" height="60" as="geometry" />
        </mxCell>
        <mxCell id="zs10cR3Apqn2q6g3ceit-8" value="&lt;font style=&quot;font-size: 8px;&quot;&gt;Работа с библиотеками&lt;/font&gt;" style="ellipse;whiteSpace=wrap;html=1;movable=1;resizable=1;rotatable=1;deletable=1;editable=1;locked=0;connectable=1;" parent="1" vertex="1">
          <mxGeometry x="1400" y="220" width="70" height="50" as="geometry" />
        </mxCell>
        <mxCell id="zs10cR3Apqn2q6g3ceit-9" value="Работа с движком" style="text;html=1;align=center;verticalAlign=middle;resizable=1;points=[];autosize=1;strokeColor=none;fillColor=none;movable=1;rotatable=1;deletable=1;editable=1;locked=0;connectable=1;" parent="1" vertex="1">
          <mxGeometry x="966" y="160" width="120" height="30" as="geometry" />
        </mxCell>
        <mxCell id="zs10cR3Apqn2q6g3ceit-10" value="" style="endArrow=none;html=1;rounded=0;movable=1;resizable=1;rotatable=1;deletable=1;editable=1;locked=0;connectable=1;" parent="1" source="zs10cR3Apqn2q6g3ceit-8" target="zs10cR3Apqn2q6g3ceit-5" edge="1">
          <mxGeometry width="50" height="50" relative="1" as="geometry">
            <mxPoint x="1396" y="452" as="sourcePoint" />
            <mxPoint x="1446" y="402" as="targetPoint" />
          </mxGeometry>
        </mxCell>
        <mxCell id="zs10cR3Apqn2q6g3ceit-11" style="rounded=0;orthogonalLoop=1;jettySize=auto;html=1;endArrow=block;endFill=0;movable=1;resizable=1;rotatable=1;deletable=1;editable=1;locked=0;connectable=1;" parent="1" source="zs10cR3Apqn2q6g3ceit-7" target="zs10cR3Apqn2q6g3ceit-4" edge="1">
          <mxGeometry relative="1" as="geometry" />
        </mxCell>
        <mxCell id="zs10cR3Apqn2q6g3ceit-12" style="rounded=0;orthogonalLoop=1;jettySize=auto;html=1;exitX=0;exitY=1;exitDx=0;exitDy=0;entryX=1;entryY=0;entryDx=0;entryDy=0;dashed=1;dashPattern=8 8;" parent="1" source="zs10cR3Apqn2q6g3ceit-15" target="zs10cR3Apqn2q6g3ceit-21" edge="1">
          <mxGeometry relative="1" as="geometry" />
        </mxCell>
        <mxCell id="zs10cR3Apqn2q6g3ceit-13" value="&lt;font style=&quot;font-size: 8px;&quot;&gt;&amp;lt;&amp;lt;include&amp;gt;&amp;gt;&lt;/font&gt;" style="edgeLabel;html=1;align=center;verticalAlign=middle;resizable=0;points=[];" parent="zs10cR3Apqn2q6g3ceit-12" vertex="1" connectable="0">
          <mxGeometry x="-0.0712" y="-2" relative="1" as="geometry">
            <mxPoint x="-3" y="-3" as="offset" />
          </mxGeometry>
        </mxCell>
        <mxCell id="zs10cR3Apqn2q6g3ceit-14" style="rounded=0;orthogonalLoop=1;jettySize=auto;html=1;dashed=1;dashPattern=8 8;" parent="1" source="zs10cR3Apqn2q6g3ceit-15" target="zs10cR3Apqn2q6g3ceit-20" edge="1">
          <mxGeometry relative="1" as="geometry" />
        </mxCell>
        <mxCell id="zs10cR3Apqn2q6g3ceit-15" value="&lt;span style=&quot;font-size: 8px;&quot;&gt;Улучшение движка&lt;/span&gt;" style="ellipse;whiteSpace=wrap;html=1;movable=1;resizable=1;rotatable=1;deletable=1;editable=1;locked=0;connectable=1;" parent="1" vertex="1">
          <mxGeometry x="1370" y="317" width="90" height="65" as="geometry" />
        </mxCell>
        <mxCell id="zs10cR3Apqn2q6g3ceit-16" value="" style="endArrow=none;html=1;rounded=0;exitX=1;exitY=0.5;exitDx=0;exitDy=0;" parent="1" source="zs10cR3Apqn2q6g3ceit-15" target="zs10cR3Apqn2q6g3ceit-5" edge="1">
          <mxGeometry width="50" height="50" relative="1" as="geometry">
            <mxPoint x="1460" y="492" as="sourcePoint" />
            <mxPoint x="1510" y="442" as="targetPoint" />
          </mxGeometry>
        </mxCell>
        <mxCell id="zs10cR3Apqn2q6g3ceit-17" value="&lt;span style=&quot;font-size: 8px;&quot;&gt;Работа с версией&lt;/span&gt;" style="ellipse;whiteSpace=wrap;html=1;movable=1;resizable=1;rotatable=1;deletable=1;editable=1;locked=0;connectable=1;" parent="1" vertex="1">
          <mxGeometry x="1180" y="180" width="70" height="50" as="geometry" />
        </mxCell>
        <mxCell id="zs10cR3Apqn2q6g3ceit-18" value="&lt;font style=&quot;font-size: 8px;&quot;&gt;Настройка камеры&lt;/font&gt;" style="ellipse;whiteSpace=wrap;html=1;movable=1;resizable=1;rotatable=1;deletable=1;editable=1;locked=0;connectable=1;" parent="1" vertex="1">
          <mxGeometry x="1216" y="250" width="70" height="50" as="geometry" />
        </mxCell>
        <mxCell id="zs10cR3Apqn2q6g3ceit-19" value="" style="endArrow=none;html=1;rounded=0;exitX=0;exitY=0.5;exitDx=0;exitDy=0;" parent="1" source="zs10cR3Apqn2q6g3ceit-17" target="zs10cR3Apqn2q6g3ceit-4" edge="1">
          <mxGeometry width="50" height="50" relative="1" as="geometry">
            <mxPoint x="1030" y="512" as="sourcePoint" />
            <mxPoint x="1080" y="462" as="targetPoint" />
          </mxGeometry>
        </mxCell>
        <mxCell id="zs10cR3Apqn2q6g3ceit-20" value="&lt;span style=&quot;font-size: 8px;&quot;&gt;Устранение багов&lt;/span&gt;" style="ellipse;whiteSpace=wrap;html=1;movable=1;resizable=1;rotatable=1;deletable=1;editable=1;locked=0;connectable=1;" parent="1" vertex="1">
          <mxGeometry x="1326" y="447" width="70" height="50" as="geometry" />
        </mxCell>
        <mxCell id="zs10cR3Apqn2q6g3ceit-21" value="&lt;span style=&quot;font-size: 8px;&quot;&gt;Сбор информации&lt;/span&gt;" style="ellipse;whiteSpace=wrap;html=1;movable=1;resizable=1;rotatable=1;deletable=1;editable=1;locked=0;connectable=1;" parent="1" vertex="1">
          <mxGeometry x="1280" y="400" width="70" height="50" as="geometry" />
        </mxCell>
        <mxCell id="zs10cR3Apqn2q6g3ceit-22" value="&lt;font style=&quot;font-size: 8px;&quot;&gt;&amp;lt;&amp;lt;include&amp;gt;&amp;gt;&lt;/font&gt;" style="edgeLabel;html=1;align=center;verticalAlign=middle;resizable=0;points=[];rotation=0;" parent="1" vertex="1" connectable="0">
          <mxGeometry x="1388.0023613166645" y="413.99827670065815" as="geometry">
            <mxPoint x="-2" y="1" as="offset" />
          </mxGeometry>
        </mxCell>
        <mxCell id="zs10cR3Apqn2q6g3ceit-23" style="rounded=0;orthogonalLoop=1;jettySize=auto;html=1;dashed=1;dashPattern=8 8;exitX=0.648;exitY=0.999;exitDx=0;exitDy=0;exitPerimeter=0;" parent="1" source="zs10cR3Apqn2q6g3ceit-15" target="zs10cR3Apqn2q6g3ceit-24" edge="1">
          <mxGeometry relative="1" as="geometry">
            <mxPoint x="1373" y="362" as="sourcePoint" />
          </mxGeometry>
        </mxCell>
        <mxCell id="zs10cR3Apqn2q6g3ceit-24" value="&lt;font style=&quot;font-size: 8px;&quot;&gt;Оптимизация&lt;br&gt;&lt;/font&gt;" style="ellipse;whiteSpace=wrap;html=1;movable=1;resizable=1;rotatable=1;deletable=1;editable=1;locked=0;connectable=1;" parent="1" vertex="1">
          <mxGeometry x="1400" y="440" width="70" height="50" as="geometry" />
        </mxCell>
        <mxCell id="zs10cR3Apqn2q6g3ceit-25" value="&lt;font style=&quot;font-size: 8px;&quot;&gt;&amp;lt;&amp;lt;include&amp;gt;&amp;gt;&lt;/font&gt;" style="edgeLabel;html=1;align=center;verticalAlign=middle;resizable=0;points=[];rotation=0;" parent="1" vertex="1" connectable="0">
          <mxGeometry x="1435.0023613166645" y="413.99827670065815" as="geometry">
            <mxPoint x="-2" y="-5" as="offset" />
          </mxGeometry>
        </mxCell>
        <mxCell id="zs10cR3Apqn2q6g3ceit-26" value="" style="endArrow=none;html=1;rounded=0;exitX=1;exitY=0.5;exitDx=0;exitDy=0;" parent="1" source="zs10cR3Apqn2q6g3ceit-17" target="zs10cR3Apqn2q6g3ceit-5" edge="1">
          <mxGeometry width="50" height="50" relative="1" as="geometry">
            <mxPoint x="1190" y="562" as="sourcePoint" />
            <mxPoint x="1240" y="512" as="targetPoint" />
          </mxGeometry>
        </mxCell>
        <mxCell id="zs10cR3Apqn2q6g3ceit-27" value="" style="endArrow=none;html=1;rounded=0;exitX=0.058;exitY=0.702;exitDx=0;exitDy=0;exitPerimeter=0;" parent="1" source="zs10cR3Apqn2q6g3ceit-17" target="zs10cR3Apqn2q6g3ceit-7" edge="1">
          <mxGeometry width="50" height="50" relative="1" as="geometry">
            <mxPoint x="1120" y="412" as="sourcePoint" />
            <mxPoint x="1170" y="362" as="targetPoint" />
          </mxGeometry>
        </mxCell>
        <mxCell id="zs10cR3Apqn2q6g3ceit-28" style="rounded=0;orthogonalLoop=1;jettySize=auto;html=1;dashed=1;" parent="1" source="zs10cR3Apqn2q6g3ceit-32" target="zs10cR3Apqn2q6g3ceit-18" edge="1">
          <mxGeometry relative="1" as="geometry" />
        </mxCell>
        <mxCell id="zs10cR3Apqn2q6g3ceit-29" value="&amp;lt;&amp;lt;include&amp;gt;&amp;gt;" style="edgeLabel;html=1;align=center;verticalAlign=middle;resizable=0;points=[];fontSize=8;" parent="zs10cR3Apqn2q6g3ceit-28" vertex="1" connectable="0">
          <mxGeometry x="0.0056" y="-1" relative="1" as="geometry">
            <mxPoint as="offset" />
          </mxGeometry>
        </mxCell>
        <mxCell id="zs10cR3Apqn2q6g3ceit-30" style="rounded=0;orthogonalLoop=1;jettySize=auto;html=1;dashed=1;" parent="1" source="zs10cR3Apqn2q6g3ceit-32" target="zs10cR3Apqn2q6g3ceit-46" edge="1">
          <mxGeometry relative="1" as="geometry" />
        </mxCell>
        <mxCell id="zs10cR3Apqn2q6g3ceit-31" value="&amp;lt;&amp;lt;include&amp;gt;&amp;gt;" style="edgeLabel;html=1;align=center;verticalAlign=middle;resizable=0;points=[];fontSize=8;" parent="zs10cR3Apqn2q6g3ceit-30" vertex="1" connectable="0">
          <mxGeometry x="0.0261" y="1" relative="1" as="geometry">
            <mxPoint as="offset" />
          </mxGeometry>
        </mxCell>
        <mxCell id="zs10cR3Apqn2q6g3ceit-32" value="&lt;span style=&quot;font-size: 8px;&quot;&gt;Создание сцены&lt;/span&gt;" style="ellipse;whiteSpace=wrap;html=1;movable=1;resizable=1;rotatable=1;deletable=1;editable=1;locked=0;connectable=1;" parent="1" vertex="1">
          <mxGeometry x="1096" y="290" width="70" height="50" as="geometry" />
        </mxCell>
        <mxCell id="zs10cR3Apqn2q6g3ceit-33" value="" style="endArrow=none;html=1;rounded=0;entryX=0;entryY=1;entryDx=0;entryDy=0;" parent="1" source="zs10cR3Apqn2q6g3ceit-7" target="zs10cR3Apqn2q6g3ceit-32" edge="1">
          <mxGeometry width="50" height="50" relative="1" as="geometry">
            <mxPoint x="1070" y="-178" as="sourcePoint" />
            <mxPoint x="1120" y="-228" as="targetPoint" />
          </mxGeometry>
        </mxCell>
        <mxCell id="zs10cR3Apqn2q6g3ceit-34" style="rounded=0;orthogonalLoop=1;jettySize=auto;html=1;dashed=1;dashPattern=8 8;" parent="1" source="zs10cR3Apqn2q6g3ceit-38" target="zs10cR3Apqn2q6g3ceit-40" edge="1">
          <mxGeometry relative="1" as="geometry" />
        </mxCell>
        <mxCell id="zs10cR3Apqn2q6g3ceit-35" value="&amp;lt;&amp;lt;include&amp;gt;&amp;gt;" style="edgeLabel;html=1;align=center;verticalAlign=middle;resizable=0;points=[];fontSize=8;" parent="zs10cR3Apqn2q6g3ceit-34" vertex="1" connectable="0">
          <mxGeometry x="-0.0825" relative="1" as="geometry">
            <mxPoint as="offset" />
          </mxGeometry>
        </mxCell>
        <mxCell id="zs10cR3Apqn2q6g3ceit-36" style="rounded=0;orthogonalLoop=1;jettySize=auto;html=1;entryX=0.5;entryY=0;entryDx=0;entryDy=0;dashed=1;dashPattern=8 8;" parent="1" source="zs10cR3Apqn2q6g3ceit-38" target="zs10cR3Apqn2q6g3ceit-41" edge="1">
          <mxGeometry relative="1" as="geometry" />
        </mxCell>
        <mxCell id="zs10cR3Apqn2q6g3ceit-37" style="rounded=0;orthogonalLoop=1;jettySize=auto;html=1;entryX=0;entryY=0;entryDx=0;entryDy=0;dashed=1;dashPattern=8 8;" parent="1" source="zs10cR3Apqn2q6g3ceit-38" target="zs10cR3Apqn2q6g3ceit-43" edge="1">
          <mxGeometry relative="1" as="geometry" />
        </mxCell>
        <mxCell id="zs10cR3Apqn2q6g3ceit-38" value="&lt;span style=&quot;font-size: 8px;&quot;&gt;Безопастность данных&amp;nbsp;&lt;br&gt;&lt;/span&gt;" style="ellipse;whiteSpace=wrap;html=1;movable=1;resizable=1;rotatable=1;deletable=1;editable=1;locked=0;connectable=1;" parent="1" vertex="1">
          <mxGeometry x="994.01" y="585" width="70" height="50" as="geometry" />
        </mxCell>
        <mxCell id="zs10cR3Apqn2q6g3ceit-39" value="" style="endArrow=none;html=1;rounded=0;exitX=0;exitY=0;exitDx=0;exitDy=0;" parent="1" source="zs10cR3Apqn2q6g3ceit-38" target="zs10cR3Apqn2q6g3ceit-7" edge="1">
          <mxGeometry width="50" height="50" relative="1" as="geometry">
            <mxPoint x="1130" y="420" as="sourcePoint" />
            <mxPoint x="1180" y="370" as="targetPoint" />
          </mxGeometry>
        </mxCell>
        <mxCell id="zs10cR3Apqn2q6g3ceit-40" value="&lt;span style=&quot;font-size: 8px;&quot;&gt;Работа с аудитами&lt;/span&gt;" style="ellipse;whiteSpace=wrap;html=1;movable=1;resizable=1;rotatable=1;deletable=1;editable=1;locked=0;connectable=1;" parent="1" vertex="1">
          <mxGeometry x="1134.01" y="602" width="88.33" height="53" as="geometry" />
        </mxCell>
        <mxCell id="zs10cR3Apqn2q6g3ceit-41" value="&lt;span style=&quot;font-size: 8px;&quot;&gt;Внедрение новых мер безопасности&lt;/span&gt;" style="ellipse;whiteSpace=wrap;html=1;movable=1;resizable=1;rotatable=1;deletable=1;editable=1;locked=0;connectable=1;" parent="1" vertex="1">
          <mxGeometry x="1064.01" y="705" width="80" height="50" as="geometry" />
        </mxCell>
        <mxCell id="zs10cR3Apqn2q6g3ceit-42" value="&amp;lt;&amp;lt;include&amp;gt;&amp;gt;" style="edgeLabel;html=1;align=center;verticalAlign=middle;resizable=0;points=[];fontSize=8;" parent="1" vertex="1" connectable="0">
          <mxGeometry x="1095.9968124464567" y="649.9964495769641" as="geometry" />
        </mxCell>
        <mxCell id="zs10cR3Apqn2q6g3ceit-43" value="&lt;span style=&quot;font-size: 8px;&quot;&gt;Обновление системы&lt;/span&gt;" style="ellipse;whiteSpace=wrap;html=1;movable=1;resizable=1;rotatable=1;deletable=1;editable=1;locked=0;connectable=1;" parent="1" vertex="1">
          <mxGeometry x="1124.01" y="665" width="80" height="50" as="geometry" />
        </mxCell>
        <mxCell id="zs10cR3Apqn2q6g3ceit-44" value="&amp;lt;&amp;lt;include&amp;gt;&amp;gt;" style="edgeLabel;html=1;align=center;verticalAlign=middle;resizable=0;points=[];fontSize=8;" parent="1" vertex="1" connectable="0">
          <mxGeometry x="1079.8368124464566" y="673.4964495769641" as="geometry" />
        </mxCell>
        <mxCell id="zs10cR3Apqn2q6g3ceit-45" value="&lt;span style=&quot;font-size: 8px;&quot;&gt;Обновление системных компонентов&lt;/span&gt;" style="ellipse;whiteSpace=wrap;html=1;movable=1;resizable=1;rotatable=1;deletable=1;editable=1;locked=0;connectable=1;" parent="1" vertex="1">
          <mxGeometry x="1040" y="365" width="70" height="50" as="geometry" />
        </mxCell>
        <mxCell id="zs10cR3Apqn2q6g3ceit-46" value="&lt;span style=&quot;font-size: 8px;&quot;&gt;Расположение объектов&lt;/span&gt;" style="ellipse;whiteSpace=wrap;html=1;movable=1;resizable=1;rotatable=1;deletable=1;editable=1;locked=0;connectable=1;" parent="1" vertex="1">
          <mxGeometry x="1207" y="332" width="70" height="50" as="geometry" />
        </mxCell>
        <mxCell id="zs10cR3Apqn2q6g3ceit-52" value="&lt;font style=&quot;font-size: 8px;&quot;&gt;Работа с анимациями&lt;/font&gt;" style="ellipse;whiteSpace=wrap;html=1;movable=1;resizable=1;rotatable=1;deletable=1;editable=1;locked=0;connectable=1;" parent="1" vertex="1">
          <mxGeometry x="1152.34" y="385" width="70" height="50" as="geometry" />
        </mxCell>
        <mxCell id="zs10cR3Apqn2q6g3ceit-53" style="rounded=0;orthogonalLoop=1;jettySize=auto;html=1;dashed=1;" parent="1" source="zs10cR3Apqn2q6g3ceit-32" target="zs10cR3Apqn2q6g3ceit-52" edge="1">
          <mxGeometry relative="1" as="geometry">
            <mxPoint x="1099.34" y="440" as="sourcePoint" />
          </mxGeometry>
        </mxCell>
        <mxCell id="zs10cR3Apqn2q6g3ceit-54" value="&amp;lt;&amp;lt;include&amp;gt;&amp;gt;" style="edgeLabel;html=1;align=center;verticalAlign=middle;resizable=0;points=[];fontSize=8;" parent="zs10cR3Apqn2q6g3ceit-53" vertex="1" connectable="0">
          <mxGeometry x="0.0056" y="-1" relative="1" as="geometry">
            <mxPoint as="offset" />
          </mxGeometry>
        </mxCell>
        <mxCell id="9jqEJzIPYbCdj6i7P5ar-1" value="&lt;font style=&quot;font-size: 8px;&quot;&gt;Регистрация&lt;/font&gt;" style="ellipse;whiteSpace=wrap;html=1;movable=1;resizable=1;rotatable=1;deletable=1;editable=1;locked=0;connectable=1;" vertex="1" parent="1">
          <mxGeometry x="1121" y="447" width="70" height="50" as="geometry" />
        </mxCell>
        <mxCell id="9jqEJzIPYbCdj6i7P5ar-2" style="rounded=0;orthogonalLoop=1;jettySize=auto;html=1;dashed=1;" edge="1" parent="1" source="9jqEJzIPYbCdj6i7P5ar-6" target="9jqEJzIPYbCdj6i7P5ar-1">
          <mxGeometry relative="1" as="geometry" />
        </mxCell>
        <mxCell id="9jqEJzIPYbCdj6i7P5ar-3" value="&amp;lt;&amp;lt;include&amp;gt;&amp;gt;" style="edgeLabel;html=1;align=center;verticalAlign=middle;resizable=0;points=[];fontSize=8;" vertex="1" connectable="0" parent="9jqEJzIPYbCdj6i7P5ar-2">
          <mxGeometry x="0.0056" y="-1" relative="1" as="geometry">
            <mxPoint as="offset" />
          </mxGeometry>
        </mxCell>
        <mxCell id="9jqEJzIPYbCdj6i7P5ar-4" style="rounded=0;orthogonalLoop=1;jettySize=auto;html=1;dashed=1;" edge="1" parent="1" source="9jqEJzIPYbCdj6i7P5ar-6" target="9jqEJzIPYbCdj6i7P5ar-7">
          <mxGeometry relative="1" as="geometry" />
        </mxCell>
        <mxCell id="9jqEJzIPYbCdj6i7P5ar-5" value="&amp;lt;&amp;lt;include&amp;gt;&amp;gt;" style="edgeLabel;html=1;align=center;verticalAlign=middle;resizable=0;points=[];fontSize=8;" vertex="1" connectable="0" parent="9jqEJzIPYbCdj6i7P5ar-4">
          <mxGeometry x="0.0261" y="1" relative="1" as="geometry">
            <mxPoint as="offset" />
          </mxGeometry>
        </mxCell>
        <mxCell id="9jqEJzIPYbCdj6i7P5ar-6" value="&lt;span style=&quot;font-size: 8px;&quot;&gt;Вход в систему&lt;/span&gt;" style="ellipse;whiteSpace=wrap;html=1;movable=1;resizable=1;rotatable=1;deletable=1;editable=1;locked=0;connectable=1;" vertex="1" parent="1">
          <mxGeometry x="1001" y="487" width="70" height="50" as="geometry" />
        </mxCell>
        <mxCell id="9jqEJzIPYbCdj6i7P5ar-7" value="&lt;font style=&quot;font-size: 8px;&quot;&gt;Авторизация&lt;/font&gt;" style="ellipse;whiteSpace=wrap;html=1;movable=1;resizable=1;rotatable=1;deletable=1;editable=1;locked=0;connectable=1;" vertex="1" parent="1">
          <mxGeometry x="1112" y="529" width="70" height="50" as="geometry" />
        </mxCell>
        <mxCell id="9jqEJzIPYbCdj6i7P5ar-9" style="rounded=0;orthogonalLoop=1;jettySize=auto;html=1;endArrow=none;endFill=0;entryX=0.269;entryY=0.08;entryDx=0;entryDy=0;entryPerimeter=0;" edge="1" parent="1" target="9jqEJzIPYbCdj6i7P5ar-6">
          <mxGeometry relative="1" as="geometry">
            <mxPoint x="938" y="248" as="sourcePoint" />
            <mxPoint x="1110" y="313" as="targetPoint" />
          </mxGeometry>
        </mxCell>
      </root>
    </mxGraphModel>
  </diagram>
</mxfile>
